
<svg id="Layer_1" data-name="Layer 1" xmlns="http://www.w3.org/2000/svg" viewBox="0 0 535.68 145.44"><defs><style>.cls-1{fill:#208366;}.cls-2{fill:#ffffff;}</style></defs><path class="cls-1" d="M141.49,63.55c-.05-.91-.12-1.81-.19-2.72-.16-1.62-.32-3.25-.49-4.88a100.34,100.34,0,0,0-5.51-23.37c-3.36-9-9.25-15.35-18.2-19C107.2,9.5,96.83,7.63,86.25,6.9c-4-.27-8-.43-12-.43a120.32,120.32,0,0,0-36.61,5.27C26,15.44,18,22.66,14.22,34.52a129.19,129.19,0,0,0-3.6,14.11A137.06,137.06,0,0,0,8.24,73.5a137.06,137.06,0,0,0,2.38,24.87,129.19,129.19,0,0,0,3.6,14.11C18,124.34,26,131.56,37.67,135.26a120.22,120.22,0,0,0,36.6,5.27c4,0,8-.16,12-.43,10.58-.73,21-2.6,30.85-6.66,9-3.67,14.84-10,18.2-19a100.34,100.34,0,0,0,5.51-23.37c.17-1.63.33-3.26.49-4.88.07-.91.14-1.81.19-2.72.11-1.73.37-3.45.56-5.17V68.72C141.86,67,141.6,65.28,141.49,63.55ZM113.21,76.13A24.24,24.24,0,0,1,108,83.77a24.69,24.69,0,0,1-7.67,5.15A23.37,23.37,0,0,1,91,90.81,16.26,16.26,0,0,1,85.68,90a22,22,0,0,1-4.62-2.26V88l-.23,11.1a7.32,7.32,0,0,1-.46,2.61,6.3,6.3,0,0,1-1.29,2.13,5.89,5.89,0,0,1-2,1.42,6.4,6.4,0,0,1-2.54.5,6.54,6.54,0,0,1-2.57-.5,6.72,6.72,0,0,1-2.08-1.41,6.51,6.51,0,0,1-1.42-2.14,6.85,6.85,0,0,1-.5-2.61V66.77a30.25,30.25,0,0,1,.3-4.33,12,12,0,0,0-2.13-4.72,9,9,0,0,0-7.55-3.35c-3.3,0-5.83,1-7.6,3s-2.66,5.29-2.66,9.83v31.4a6.37,6.37,0,0,1-.51,2.57,6,6,0,0,1-1.41,2,7,7,0,0,1-2.11,1.36,6.65,6.65,0,0,1-5.11,0,6.93,6.93,0,0,1-2.08-1.36,6.19,6.19,0,0,1-1.42-2,6.54,6.54,0,0,1-.5-2.57V66.35a31,31,0,0,1,1.56-10,23,23,0,0,1,4.5-7.93,20.83,20.83,0,0,1,7.24-5.23,24.11,24.11,0,0,1,9.81-1.89,25.55,25.55,0,0,1,9.88,1.82,20.86,20.86,0,0,1,7.4,5.15,22.86,22.86,0,0,1,6.24-4.12A22.32,22.32,0,0,1,91,42.24a23.37,23.37,0,0,1,9.33,1.89A24.09,24.09,0,0,1,115.1,66.76,23.38,23.38,0,0,1,113.21,76.13Z"/><path class="cls-2" d="M102.73,66.45a10.83,10.83,0,0,1-.91,4.37,11.67,11.67,0,0,1-2.45,3.59,11.28,11.28,0,0,1-3.57,2.42,10.83,10.83,0,0,1-8.53,0,11.1,11.1,0,0,1-3.46-2.33,10.91,10.91,0,0,1-2.32-3.45,11.13,11.13,0,0,1-.44-1.22,10.8,10.8,0,0,1-.42-3,12.29,12.29,0,0,1,.26-2.48,12.78,12.78,0,0,1,.6-2,10.57,10.57,0,0,1,2.32-3.69,11.07,11.07,0,0,1,3.46-2.32,10.45,10.45,0,0,1,4.24-.87,12.12,12.12,0,0,1,4.29.77,10.94,10.94,0,0,1,3.57,2.16A9.78,9.78,0,0,1,101.82,62,11.65,11.65,0,0,1,102.73,66.45Z"/><path class="cls-2" d="M180.67,69.2l-.07,34.43h-9.75V48.42h3l33.23,35.26.07-34.36h9.75v55.21h-3Z"/><path class="cls-2" d="M224.56,84.35C224.56,73.78,232,64.1,245,64.1s20.48,9.68,20.48,20.25-7.42,20.33-20.48,20.33S224.56,95,224.56,84.35Zm9.52,0c0,7.21,4.73,11.86,10.95,11.86s11-4.65,11-11.86-4.73-11.77-11-11.77S234.08,77.23,234.08,84.35Z"/><path class="cls-2" d="M285.24,65h9.68v7.65h-9.68v31h-9.52v-31h-8.18L283,53.6h2.25Z"/><path class="cls-2" d="M317.35,95.68a14.12,14.12,0,0,0,11.32-5.1l5,7.43c-2.85,3.07-8.18,6.52-16.43,6.52-12.22,0-19.95-8.77-19.95-20.18s7.73-20.17,19.95-20.17c8.25,0,13.58,3.45,16.43,6.52l-5,7.43A14.12,14.12,0,0,0,317.35,73c-6.23,0-10.51,4.5-10.51,11.32S311.12,95.68,317.35,95.68Z"/><path class="cls-2" d="M349.3,45.87V69c1.8-2.55,5.25-4.88,11.7-4.88,9.83,0,15.23,6.9,15.23,16.8v22.73H366.7V82c0-6.15-2.92-9.37-8.55-9.37-5.1,0-8.85,3.22-8.85,9.37v21.68h-9.53V45.87Z"/><path class="cls-1" d="M423.79,49.32c11.1,0,19,7.06,19,18.16s-7.88,18.3-19,18.3H413.06v17.85h-9.75V49.32Zm8.93,18.16c0-5.33-3.61-9.3-10.13-9.3h-9.53V76.93h9.53C429.11,76.93,432.72,73,432.72,67.48Z"/><path class="cls-1" d="M464.67,104.53c-10,0-18.53-7.5-18.53-20.18s8.55-20.25,18.53-20.25a16.34,16.34,0,0,1,11.78,4.65V65h9.3v38.63h-9.3V100A16.29,16.29,0,0,1,464.67,104.53Zm-9.08-20.18c0,7.43,4.65,11.71,10.73,11.71,5.55,0,10.35-4.28,10.35-11.71s-4.8-11.77-10.35-11.77C460.24,72.58,455.59,76.85,455.59,84.35Z"/><path class="cls-1" d="M530.91,65l-19.73,55.14h-9.53l5.63-16.21L490.62,65h10.21l10.72,26.71L520.78,65Z"/></svg>